HIERARCHY
ROOT Hips
{
	OFFSET 0.000000 0.000000 0.000000
	CHANNELS 6 Xposition Yposition Zposition Zrotation Yrotation Xrotation 
	JOINT LHipJoint
	{
		OFFSET 0.000000 0.000000 0.000000
		CHANNELS 3 Zrotation Yrotation Xrotation
		JOINT LeftUpLeg
		{
			OFFSET 1.363060 -1.794630 0.839290
			CHANNELS 3 Zrotation Yrotation Xrotation
			JOINT LeftLeg
			{
				OFFSET 2.448110 -6.726130 0.000000
				CHANNELS 3 Zrotation Yrotation Xrotation
				JOINT LeftFoot
				{
					OFFSET 2.562200 -7.039590 0.000000
					CHANNELS 3 Zrotation Yrotation Xrotation
					JOINT LeftToeBase
					{
						OFFSET 0.157640 -0.433110 2.322550
						CHANNELS 3 Zrotation Yrotation Xrotation
						End Site
						{
							OFFSET 0.000000 0.000000 0.000000
						}
					}
				}
			}
		}
	}
	JOINT RHipJoint
	{
		OFFSET 0.000000 0.000000 0.000000
		CHANNELS 3 Zrotation Yrotation Xrotation
		JOINT RightUpLeg
		{
			OFFSET -1.305520 -1.794630 0.839290
			CHANNELS 3 Zrotation Yrotation Xrotation
			JOINT RightLeg
			{
				OFFSET -2.542530 -6.985550 0.000000
				CHANNELS 3 Zrotation Yrotation Xrotation
				JOINT RightFoot
				{
					OFFSET -2.568260 -7.056230 0.000000
					CHANNELS 3 Zrotation Yrotation Xrotation
					JOINT RightToeBase
					{
						OFFSET -0.164730 -0.452590 2.363150
						CHANNELS 3 Zrotation Yrotation Xrotation
						End Site
						{
							OFFSET 0.000000 0.000000 0.000000
						}
					}
				}
			}
		}
	}
	JOINT LowerBack
	{
		OFFSET 0.000000 0.000000 0.000000
		CHANNELS 3 Zrotation Yrotation Xrotation
		JOINT Spine
		{
			OFFSET 0.028270 2.035590 -0.193380
			CHANNELS 3 Zrotation Yrotation Xrotation
			JOINT Spine1
			{
				OFFSET 0.056720 2.048850 -0.042750
				CHANNELS 3 Zrotation Yrotation Xrotation
				JOINT Neck
				{
					OFFSET 0.000000 0.000000 0.000000
					CHANNELS 3 Zrotation Yrotation Xrotation
					JOINT Neck1
					{
						OFFSET -0.054170 1.746240 0.172020
						CHANNELS 3 Zrotation Yrotation Xrotation
						JOINT Head
						{
							OFFSET 0.104070 1.761360 -0.123970
							CHANNELS 3 Zrotation Yrotation Xrotation
							End Site
							{
								OFFSET 0.000000 0.000000 0.000000
							}
						}
					}
				}
				JOINT LeftShoulder
				{
					OFFSET 0.000000 0.000000 0.000000
					CHANNELS 3 Zrotation Yrotation Xrotation
					JOINT LeftArm
					{
						OFFSET 3.362410 1.200890 -0.311210
						CHANNELS 3 Zrotation Yrotation Xrotation
						JOINT LeftForeArm
						{
							OFFSET 4.983000 -0.000000 -0.000000
							CHANNELS 3 Zrotation Yrotation Xrotation
							JOINT LeftHand
							{
								OFFSET 3.483560 -0.000000 -0.000000
								CHANNELS 3 Zrotation Yrotation Xrotation
								JOINT LeftFingerBase
								{
									OFFSET 0.000000 0.000000 0.000000
									CHANNELS 3 Zrotation Yrotation Xrotation
									JOINT LeftHandIndex1
									{
										OFFSET 0.715260 -0.000000 -0.000000
										CHANNELS 3 Zrotation Yrotation Xrotation
										End Site
										{
											OFFSET 0.000000 0.000000 0.000000
										}
									}
								}
								JOINT LThumb
								{
									OFFSET 0.000000 0.000000 0.000000
									CHANNELS 3 Zrotation Yrotation Xrotation
									End Site
									{
										OFFSET 0.000000 0.000000 0.000000
									}
								}
							}
						}
					}
				}
				JOINT RightShoulder
				{
					OFFSET 0.000000 0.000000 0.000000
					CHANNELS 3 Zrotation Yrotation Xrotation
					JOINT RightArm
					{
						OFFSET -3.136600 1.374050 -0.404650
						CHANNELS 3 Zrotation Yrotation Xrotation
						JOINT RightForeArm
						{
							OFFSET -5.241900 -0.000000 -0.000000
							CHANNELS 3 Zrotation Yrotation Xrotation
							JOINT RightHand
							{
								OFFSET -3.444170 -0.000000 -0.000000
								CHANNELS 3 Zrotation Yrotation Xrotation
								JOINT RightFingerBase
								{
									OFFSET 0.000000 0.000000 0.000000
									CHANNELS 3 Zrotation Yrotation Xrotation
									JOINT RightHandIndex1
									{
										OFFSET -0.622530 -0.000000 -0.000000
										CHANNELS 3 Zrotation Yrotation Xrotation
										End Site
										{
											OFFSET 0.000000 0.000000 0.000000
										}
									}
								}
								JOINT RThumb
								{
									OFFSET 0.000000 0.000000 0.000000
									CHANNELS 3 Zrotation Yrotation Xrotation
									End Site
									{
										OFFSET 0.000000 0.000000 0.000000
									}
								}
							}
						}
					}
				}
			}
		}
	}
}
MOTION
Frames: 12
Frame Time: 0.008333
10.237568 16.214264 -18.277027 -177.886410 -1.110156 -174.220984 7.195502 16.991420 8.549387 -25.578519 -23.570707 -35.756987 0.457704 3.047857 4.707161 -2.584329 -9.323552 1.414813 2.283720 -1.272491 -8.781763 -3.167540 -13.458808 2.908737 35.820824 4.071699 -3.781554 -7.107233 2.967201 22.401237 -9.503415 5.103821 -23.360167 -2.319864 0.079614 -5.548475 -5.181099 -1.961492 -0.877809 4.221751 2.806894 -3.101093 -4.816089 4.532960 6.720169 2.411233 0.053256 -10.815221 1.745667 -0.384568 23.324253 2.465887 -1.316024 14.137006 9.847344 0.574240 -0.289224 -80.153600 2.731140 8.164746 -17.527742 -13.477695 8.880377 14.172095 -7.702451 -0.090244 -0.000000 0.000010 -0.000002 0.000000 0.000000 0.000000 0.000000 -0.000000 0.000000 0.768201 4.317391 4.208899 68.365852 16.481527 -0.305287 13.677230 22.845040 34.462698 5.764331 22.990046 4.551986 -0.000002 0.000011 0.000003 0.000000 -0.000000 0.000000 0.000000 0.000000 0.000000 
10.232447 16.186486 -18.478228 -177.644776 -1.241093 -174.110402 7.081750 16.989072 8.679067 -25.277357 -23.930050 -36.258128 0.597639 2.681060 3.581148 -2.691488 -9.351976 1.131429 2.008207 -1.592332 -7.427854 -2.892836 -13.332287 2.861249 35.677794 3.671074 -3.368384 -7.241399 2.445975 22.478263 -9.675338 5.247658 -23.581182 -2.728009 0.502573 -6.036933 -5.267706 -2.035905 -1.028362 4.380884 2.704946 -3.084350 -4.969372 4.523927 6.613308 2.642764 0.140981 -10.789985 1.786132 -0.326180 23.445052 2.571367 -0.933920 13.951591 9.941745 0.777582 -0.335455 -80.386363 3.689589 7.372177 -17.347891 -12.993825 8.227288 14.612946 -7.235361 -0.132169 -0.000000 0.000010 -0.000002 -0.000000 0.000000 -0.000000 -0.000000 0.000000 0.000000 1.077666 4.548603 4.262615 68.113432 16.904557 -0.372265 13.618446 23.026253 34.795943 4.365028 23.237147 4.283304 -0.000002 0.000011 0.000003 0.000000 0.000000 -0.000000 0.000000 0.000000 -0.000000 
10.233018 16.153754 -18.678378 -177.421183 -1.458880 -174.047012 7.155045 16.998867 8.725494 -25.224323 -24.377041 -36.506453 0.800482 2.218648 2.802111 -2.754159 -8.983064 0.600107 1.862487 -0.865889 -7.362395 -2.699147 -13.187826 2.722581 35.696360 2.628784 -2.963237 -7.501449 2.375663 22.536108 -10.068581 5.398105 -23.744367 -3.119291 0.666401 -6.766020 -5.453132 -2.126624 -1.105309 4.517809 2.722393 -3.099055 -4.629818 4.456849 6.619886 2.477440 0.116603 -10.840497 1.862993 -0.329976 23.489697 2.402823 -0.784551 13.917031 9.736489 0.890875 -0.320131 -80.656930 4.446906 6.232017 -17.247148 -12.415750 7.441477 14.898458 -6.719944 -0.159448 -0.000000 0.000010 -0.000002 -0.000000 0.000000 -0.000000 -0.000000 0.000000 0.000000 0.888772 4.568534 4.254491 67.975491 17.341959 -0.271088 13.529319 23.226712 34.090148 4.246032 22.606726 4.140042 -0.000002 0.000011 0.000003 0.000000 0.000000 -0.000000 0.000000 0.000000 0.000000 
10.225901 16.111111 -18.880631 -177.228524 -1.628749 -173.994022 7.339495 17.101232 8.920169 -25.141834 -25.256332 -36.782154 1.124422 2.145799 1.923105 -1.953599 -8.833508 0.003190 1.267617 -1.024523 -4.788327 -2.864440 -13.156480 2.628635 36.037026 1.758475 -2.411027 -7.891393 2.005587 22.471317 -9.988365 5.929301 -23.790907 -3.601130 0.929556 -7.582224 -5.467478 -2.228446 -1.208651 4.504603 2.584558 -3.107355 -4.575801 4.331627 6.579682 2.525736 0.133843 -10.822890 1.927281 -0.328846 23.417766 2.459396 -0.683153 14.024417 9.870547 1.296287 -0.294886 -81.006410 5.283490 5.306807 -17.120982 -11.908359 6.626236 15.133130 -6.078580 -0.181598 -0.000000 0.000010 -0.000002 0.000000 0.000000 0.000000 0.000000 -0.000000 0.000000 0.784458 4.852947 4.302636 67.927902 17.816663 -0.420395 13.584839 23.360757 35.085149 4.349659 23.427109 4.315068 -0.000002 0.000011 0.000003 -0.000000 0.000000 -0.000000 -0.000000 0.000000 0.000000 
10.223559 16.074925 -19.087087 -177.047551 -1.702618 -173.950231 7.416176 17.247148 9.179506 -25.061908 -25.816156 -37.178111 1.359015 1.254632 1.284163 -1.626150 -8.035401 -0.642313 1.544180 -1.095937 -5.884100 -2.752125 -13.179536 2.559409 36.050289 0.849667 -1.935850 -8.135944 2.124502 22.572067 -10.337979 6.038385 -23.891680 -4.116551 1.041692 -8.630597 -5.616300 -2.328450 -1.389946 4.587129 2.504157 -3.064194 -4.638816 4.327663 6.809541 2.720152 0.234885 -11.063398 2.030309 -0.260989 23.411918 2.818897 -0.317570 14.194223 10.026401 1.734259 -0.311414 -81.254668 5.896283 4.312715 -16.959575 -11.377595 5.569062 15.347464 -5.109198 -0.201724 -0.000000 0.000010 -0.000002 -0.000000 0.000000 0.000000 0.000000 -0.000000 0.000000 0.927284 4.986883 4.320262 67.782280 18.513436 -0.520857 13.584011 23.503101 34.633284 4.838215 23.023345 4.349974 -0.000002 0.000011 0.000003 -0.000000 0.000000 -0.000000 -0.000000 -0.000000 0.000000 
10.213108 16.046246 -19.292943 -176.850312 -1.840587 -173.968415 7.314638 17.179646 9.280866 -24.734603 -25.982537 -37.440441 1.273603 1.136771 1.148307 -1.284542 -7.024964 -1.024310 1.680098 -1.534837 -6.140642 -2.454801 -13.047560 2.497884 35.747051 0.015733 -1.704933 -8.288562 1.955855 23.077732 -10.421826 6.398409 -23.848823 -4.683810 1.474443 -9.417987 -5.681670 -2.361126 -1.526037 4.679687 2.501616 -3.014454 -4.737320 4.381801 6.731455 2.868924 0.254909 -11.008505 2.139172 -0.273589 23.427241 2.726773 -0.115944 14.292130 10.052478 1.822174 -0.317939 -81.424436 6.606734 3.431299 -16.726253 -10.880619 4.659372 15.574060 -4.298899 -0.218247 -0.000000 0.000010 -0.000002 -0.000000 0.000000 0.000000 0.000000 0.000000 0.000000 1.132262 5.106066 4.400114 67.687932 18.765267 -0.572633 13.475920 23.694979 34.898642 4.972347 23.197929 4.413551 -0.000002 0.000011 0.000003 -0.000000 -0.000000 0.000000 0.000000 0.000000 -0.000000 
10.201471 16.004354 -19.507207 -176.682365 -2.056279 -174.036279 7.509935 17.314664 9.483590 -24.918338 -26.262788 -37.511220 1.175050 1.396520 1.202475 -0.650940 -6.316098 -1.274884 1.584029 -1.163379 -6.002012 -2.513175 -13.214075 2.566682 35.831396 -0.545385 -1.356437 -8.584541 1.709436 23.697478 -10.085002 6.927617 -23.723300 -5.192493 1.650618 -10.347341 -5.681540 -2.339613 -1.740633 4.617476 2.631162 -2.923949 -4.345296 4.467251 7.229458 2.581564 0.135409 -11.395951 2.299360 -0.378811 23.235479 2.608697 -0.292852 14.936900 9.824517 1.866464 -0.399797 -81.651606 6.812403 2.504630 -16.585422 -10.337214 3.823682 15.793096 -3.648490 -0.230934 -0.000000 0.000010 -0.000002 0.000000 0.000000 0.000000 -0.000000 0.000000 0.000000 0.717957 4.734675 4.337215 67.751158 19.338783 -0.656346 13.442351 23.877340 34.811039 3.537805 23.109342 4.073288 -0.000002 0.000011 0.000003 -0.000000 0.000000 -0.000000 0.000000 -0.000000 0.000000 
10.186967 15.969970 -19.721021 -176.531360 -2.219112 -174.154448 7.469274 17.545907 9.629934 -24.903523 -26.480546 -37.523280 1.045529 1.779539 1.185242 -0.483639 -5.690775 -1.413915 1.783407 -0.835660 -7.057064 -2.350198 -13.421525 2.614450 35.571752 -1.190849 -1.020327 -8.716844 1.767197 24.412629 -10.188120 7.173535 -23.577333 -5.605324 1.798871 -11.085332 -5.700302 -2.330713 -1.915493 4.617486 2.699432 -2.815985 -4.561960 4.660050 7.262997 2.840925 0.111461 -11.396974 2.469631 -0.450873 23.164561 2.481895 -0.160225 14.542958 10.051398 1.803259 -0.373338 -81.824444 7.338800 1.645590 -16.357089 -9.845645 3.194565 15.975758 -3.220102 -0.239582 -0.000000 0.000010 -0.000002 0.000000 -0.000000 0.000000 -0.000000 0.000000 0.000000 0.974804 4.622706 4.355148 67.753794 19.534336 -0.682577 13.333383 24.079526 34.578513 3.663896 22.868542 4.058517 -0.000002 0.000011 0.000003 0.000000 0.000000 0.000000 0.000000 0.000000 0.000000 
10.178153 15.932132 -19.931982 -176.432261 -2.377481 -174.340899 7.492412 17.837136 9.709006 -25.572098 -26.080393 -37.378655 0.939281 2.717733 0.951466 -0.837478 -6.318845 -1.036427 1.761983 0.221838 -7.766909 -2.221511 -13.563297 2.628975 35.308581 -1.829337 -0.563315 -9.103946 1.288976 24.881442 -9.321879 8.119837 -23.250079 -5.959753 1.184094 -12.564827 -5.833600 -2.432753 -1.957712 4.628872 2.631859 -2.742342 -4.904724 4.701276 7.276129 3.246194 0.199670 -11.390724 2.622125 -0.438342 23.028787 2.353921 0.252379 14.742646 10.465242 2.180756 -0.284120 -82.018215 7.844031 0.885694 -16.122506 -9.389813 2.196177 16.411760 -2.305227 -0.255085 -0.000000 0.000010 -0.000002 -0.000000 0.000000 -0.000000 -0.000000 0.000000 -0.000000 1.306860 4.878097 4.449466 67.790101 19.850671 -1.066397 13.396221 24.196227 34.713702 3.956208 22.985903 4.144997 -0.000002 0.000011 0.000003 -0.000000 -0.000000 0.000000 -0.000000 0.000000 -0.000000 
10.163333 15.906156 -20.145796 -176.477103 -2.491291 -174.522990 7.467165 17.916502 9.799149 -25.961445 -25.944872 -37.121886 0.971651 3.048028 1.492221 -0.688346 -6.132012 -0.810573 1.637830 -0.012528 -7.054800 -2.005420 -13.631620 2.657863 34.696823 -2.064958 -0.367518 -9.176384 0.893506 26.103199 -9.030870 8.602452 -22.765527 -6.554433 1.478355 -13.508982 -5.954232 -2.432626 -2.054925 4.579465 2.832510 -2.671618 -4.823799 4.869174 7.421971 3.136806 0.161927 -11.504261 2.789671 -0.480438 22.998217 2.310605 0.385709 14.835744 10.321029 2.099187 -0.255868 -82.054051 8.144538 0.079309 -15.959057 -8.973265 1.369658 16.348812 -1.579855 -0.250696 -0.000000 0.000010 -0.000002 -0.000000 -0.000000 -0.000000 0.000000 -0.000000 -0.000000 1.188271 4.651665 4.441338 67.919802 19.972449 -0.948838 13.209950 24.384070 34.544269 3.304861 22.813687 3.968982 -0.000002 0.000011 0.000003 -0.000000 -0.000000 0.000000 0.000000 0.000000 -0.000000 
10.151997 15.877477 -20.367117 -176.603685 -2.540479 -174.601138 7.616834 18.015015 9.978125 -26.581039 -25.877696 -36.904370 1.096363 3.761910 2.095268 -0.441917 -6.418850 -0.315205 1.750466 0.088903 -7.613799 -1.913998 -13.709729 2.777446 34.197981 -2.367186 -0.463086 -9.425719 0.583856 27.502870 -8.215775 9.467561 -22.038317 -6.962820 1.298218 -14.594729 -6.131747 -2.494448 -2.371005 4.491903 2.880560 -2.571028 -4.976261 4.996169 7.523395 3.257609 0.171770 -11.523073 2.924892 -0.506990 22.908018 2.251523 0.522344 15.064841 10.525955 2.298551 -0.269165 -82.125490 8.588253 -0.481815 -15.821659 -8.653456 0.545666 16.733200 -0.781355 -0.256654 -0.000000 0.000010 -0.000002 0.000000 0.000000 0.000000 0.000000 0.000000 -0.000000 1.184592 4.765826 4.438376 68.189846 19.973772 -0.886152 13.078325 24.543287 34.577680 3.128692 22.790392 3.925811 -0.000002 0.000011 0.000003 -0.000000 -0.000000 0.000000 0.000000 0.000000 0.000000 
10.139234 15.845345 -20.591291 -176.733093 -2.659778 -174.709521 7.785090 18.280726 10.097029 -27.638362 -25.555791 -36.519545 1.300481 4.174696 2.796195 -0.643933 -6.869432 0.315477 1.733513 0.852804 -8.149379 -1.917490 -13.905286 2.999445 33.784571 -1.772114 -0.241338 -9.604102 -0.404243 28.757752 -7.366210 10.101027 -21.228112 -7.395204 1.232897 -15.591101 -6.270309 -2.558574 -2.687960 4.360305 2.995684 -2.461861 -5.173986 5.150196 7.652541 3.431877 0.121609 -11.554126 3.076374 -0.590172 22.788616 2.219038 0.569633 14.659541 10.838629 2.410095 -0.194553 -82.203887 8.915228 -1.193170 -15.723553 -8.286379 0.040558 16.752846 -0.437490 -0.254849 -0.000000 0.000010 -0.000002 0.000000 0.000000 0.000000 0.000000 0.000000 0.000000 1.206583 4.684932 4.504595 68.488701 20.063624 -1.229198 13.148267 24.603734 35.346087 4.062950 23.466530 4.256842 -0.000002 0.000011 0.000003 -0.000000 0.000000 0.000000 -0.000000 0.000000 -0.000000 
